<?xml version="1.0" encoding="UTF-8" standalone="no"?>
<!DOCTYPE svg PUBLIC "-//W3C//DTD SVG 1.1//EN" "http://www.w3.org/Graphics/SVG/1.1/DTD/svg11.dtd">
<svg width="100%" height="100%" viewBox="0 0 720 720" version="1.1" xmlns="http://www.w3.org/2000/svg" xmlns:xlink="http://www.w3.org/1999/xlink" xml:space="preserve" xmlns:serif="http://www.serif.com/" style="fill-rule:evenodd;clip-rule:evenodd;stroke-linejoin:round;stroke-miterlimit:1.41421;">
    <g id="Calque1">
        <g transform="matrix(0.886076,0,0,1,29.8997,1.92831)">
            <path d="M615.043,333.566C616.806,334.04 618.63,334.363 620.333,334.988C632.261,339.366 639.766,351.508 637.198,362.946C635.032,372.596 625.95,380.655 615.043,382.578C613.236,382.896 611.375,382.898 609.542,383.058L135.542,383.058C131.867,382.737 128.149,382.403 124.751,381.156C112.822,376.778 105.317,364.635 107.885,353.197C110.051,343.547 119.134,335.488 130.04,333.566C131.848,333.247 133.708,333.246 135.542,333.086L609.542,333.086C611.375,333.246 613.209,333.406 615.043,333.566Z" style="fill:rgb(32,32,32);fill-rule:nonzero;"/>
        </g>
        <g transform="matrix(0.886076,0,0,1,29.8997,-152.072)">
            <path d="M615.043,333.566C616.806,334.04 618.63,334.363 620.333,334.988C632.261,339.366 639.766,351.508 637.198,362.946C635.032,372.596 625.95,380.655 615.043,382.578C613.236,382.896 611.375,382.898 609.542,383.058L135.542,383.058C133.708,382.898 131.848,382.896 130.04,382.578C113.841,379.723 102.837,362.74 109.49,348.51C113.041,340.912 120.961,335.166 130.04,333.566C131.848,333.247 133.708,333.246 135.542,333.086L609.542,333.086C611.375,333.246 613.209,333.406 615.043,333.566Z" style="fill:rgb(32,32,32);fill-rule:nonzero;"/>
        </g>
        <g transform="matrix(0.886076,0,0,1,29.8997,155.928)">
            <path d="M615.043,333.566C616.806,334.04 618.63,334.363 620.333,334.988C632.28,339.373 639.733,351.654 637.198,362.946C635.032,372.596 625.95,380.655 615.043,382.578C613.236,382.896 611.375,382.898 609.542,383.058L135.542,383.058C133.708,382.898 131.848,382.896 130.04,382.578C115.557,380.025 104.914,366.431 107.885,353.197C110.051,343.548 119.134,335.488 130.04,333.566C131.848,333.247 133.708,333.246 135.542,333.086L609.542,333.086C611.375,333.246 613.209,333.406 615.043,333.566Z" style="fill:rgb(32,32,32);fill-rule:nonzero;"/>
        </g>
    </g>
</svg>
