<?xml version="1.0" encoding="UTF-8" standalone="no"?>
<!DOCTYPE svg PUBLIC "-//W3C//DTD SVG 1.1//EN" "http://www.w3.org/Graphics/SVG/1.1/DTD/svg11.dtd">
<svg width="100%" height="100%" viewBox="0 0 720 720" version="1.1" xmlns="http://www.w3.org/2000/svg" xmlns:xlink="http://www.w3.org/1999/xlink" xml:space="preserve" xmlns:serif="http://www.serif.com/" style="fill-rule:evenodd;clip-rule:evenodd;stroke-linejoin:round;stroke-miterlimit:1.41421;">
    <g id="Calque1">
        <g transform="matrix(1,0,0,1,-48.4377,53)">
            <path d="M408.878,113.001C451.589,113.205 493.386,138.202 513.284,177.319C532.675,215.437 529.179,264.21 503.679,299.384C477.767,335.125 430.764,354.283 386.65,345.965C339.244,337.026 299.094,296.538 292.14,246.897C286.149,204.139 305.563,158.742 341.924,133.69C361,120.547 383.953,113.265 407.366,113.005C407.87,113.001 408.374,113 408.878,113.001ZM408.28,163C383.907,163.117 360.367,177.396 348.943,198.722C339.034,217.219 338.47,240.4 347.47,259.361C360.085,285.936 391.165,302.473 421.085,296.831C441.766,292.931 460.196,278.726 469.353,259.731C478.526,240.704 478.031,217.34 468.057,198.722C456.683,177.489 433.615,163.197 408.939,163.001C408.719,163 408.5,163 408.28,163Z" style="fill:rgb(32,32,32);fill-rule:nonzero;"/>
        </g>
        <g transform="matrix(1.07746,0,0,1.07746,-79.6056,-125.021)">
            <path d="M408.533,441.798C451.439,442.002 494.261,459.669 524.796,490.204C555.268,520.675 572.999,563.157 573.202,606.468C573.202,606.468 573.174,609.41 572.764,611.49C570.708,621.913 560.867,630.185 550.037,630.203C539.413,630.22 529.38,622.181 527.251,611.563C526.464,607.644 526.817,603.686 526.579,599.735C523.666,551.423 488.502,506.352 440.511,492.709C398.687,480.819 350.707,493.851 320.559,526.623C300.688,548.223 289.25,577.141 289.203,607.037L288.75,611.562C287.863,614.469 286.957,617.407 285.272,619.921C279.324,628.792 266.958,632.529 257.087,628.422C250.063,625.5 244.711,618.966 243.236,611.491C242.261,606.549 242.811,601.471 243.132,596.416C246.478,543.714 276.844,493.586 321.913,466.003C347.357,450.43 377.107,442.037 406.935,441.801C407.468,441.798 408,441.797 408.533,441.798Z" style="fill:rgb(32,32,32);fill-rule:nonzero;"/>
        </g>
    </g>
</svg>
